Coordinates
version=1
nRows=18
nColumns=22
inDegrees=yes

Units are S.I. units (second, meters, Newtons, ...)
If the header above contains a line with 'inDegrees', this indicates whether rotational values are in degrees (yes) or radians (no).

endheader
time	pelvis_tilt	pelvis_list	pelvis_rotation	pelvis_tx	pelvis_ty	pelvis_tz	hip_flexion_r	hip_adduction_r	hip_rotation_r	knee_angle_r	ankle_angle_r	subtalar_angle_r	hip_flexion_l	hip_adduction_l	hip_rotation_l	knee_angle_l	ankle_angle_l	subtalar_angle_l	lumbar_extension	lumbar_bending	lumbar_rotation
      0.01000000	    -11.63796895	     -2.14718243	     -1.57262903	     -0.81485988	      0.98064842	      0.17119415	     17.76375185	      2.56748793	     -2.72546912	    -18.16920181	     17.18476749	     -4.40078879	     17.81963913	     -0.26869641	     -4.08842389	    -17.27670645	     18.34138024	     -3.91269854	      6.95223145	      3.81413586	      3.06067525
      0.02000000	    -11.63344827	     -2.14821904	     -1.58357184	     -0.81484939	      0.98065421	      0.17123384	     17.76075258	      2.57195343	     -2.72651546	    -18.17165850	     17.18315903	     -4.39899167	     17.81623657	     -0.27331023	     -4.08794111	    -17.28365582	     18.34159551	     -3.91049856	      6.95847137	      3.80857200	      3.05874937
      0.03000000	    -11.60751272	     -2.16313040	     -1.62260992	     -0.81489734	      0.98068189	      0.17132747	     17.75197040	      2.59990953	     -2.69818944	    -18.19753234	     17.16011398	     -4.37494281	     17.80850379	     -0.30668200	     -4.14289669	    -17.32518377	     18.36167583	     -3.87921545	      6.92287626	      3.82382328	      3.08633195
      0.04000000	    -11.60232487	     -2.16298978	     -1.63694155	     -0.81488540	      0.98068673	      0.17139230	     17.74756170	      2.60448029	     -2.69909563	    -18.19756521	     17.16045369	     -4.37386042	     17.80320899	     -0.31249483	     -4.14258464	    -17.33017585	     18.36296731	     -3.87745909	      6.93139446	      3.81434459	      3.08504581
      0.05000000	    -11.55810893	     -2.16055795	     -1.71348255	     -0.81485829	      0.98075209	      0.17156940	     17.70263551	      2.62925434	     -2.61629327	    -18.19496525	     17.16222502	     -4.34621895	     17.74929689	     -0.34203858	     -4.25942097	    -17.33472929	     18.40429320	     -3.82655008	      6.88491602	      3.81023903	      3.16430126
      0.06000000	    -11.55165778	     -2.15942408	     -1.72935127	     -0.81485011	      0.98075679	      0.17163904	     17.69967800	      2.63291907	     -2.61662294	    -18.20056428	     17.16142076	     -4.34568801	     17.74405368	     -0.34675197	     -4.25601892	    -17.34231680	     18.40353296	     -3.82552051	      6.88995007	      3.80246796	      3.16070077
      0.07000000	    -11.52248733	     -2.15706922	     -1.76349586	     -0.81490252	      0.98078253	      0.17173186	     17.69781116	      2.64102097	     -2.58583147	    -18.24773486	     17.15781061	     -4.34046366	     17.72615213	     -0.35731209	     -4.28312894	    -17.36868802	     18.41197683	     -3.81778758	      6.85098057	      3.79811562	      3.17578091
      0.08000000	    -11.48961022	     -2.15033098	     -1.80560360	     -0.81485697	      0.98082428	      0.17184581	     17.66404211	      2.64696076	     -2.55875674	    -18.24973416	     17.17326570	     -4.32848220	     17.69147161	     -0.37012513	     -4.36113048	    -17.38269813	     18.44034952	     -3.80623110	      6.82393913	      3.78785810	      3.21979467
      0.09000000	    -11.48420484	     -2.14910450	     -1.81789795	     -0.81483739	      0.98082863	      0.17189758	     17.66050600	      2.64917134	     -2.55799416	    -18.25431348	     17.17273449	     -4.32767712	     17.68662410	     -0.37302751	     -4.35767962	    -17.38884020	     18.43968265	     -3.80549024	      6.82812829	      3.78422477	      3.21549676
      0.10000000	    -11.43377291	     -2.15486590	     -1.83020398	     -0.81481780	      0.98089166	      0.17194379	     17.61264326	      2.65718469	     -2.55547962	    -18.26779374	     17.18603963	     -4.30082155	     17.64495098	     -0.38672294	     -4.38907445	    -17.41645588	     18.46273238	     -3.79215862	      6.76973949	      3.78886771	      3.21597759
      0.11000000	    -11.42905902	     -2.15399312	     -1.83516001	     -0.81476763	      0.98089464	      0.17196305	     17.60715707	      2.65622821	     -2.55517435	    -18.27276284	     17.18536622	     -4.30005041	     17.63975663	     -0.38729167	     -4.38669465	    -17.42269251	     18.46246771	     -3.79185639	      6.77755486	      3.78933753	      3.21186572
      0.12000000	    -11.40631379	     -2.15460585	     -1.82668573	     -0.81474354	      0.98091306	      0.17195691	     17.58886402	      2.65175845	     -2.56560131	    -18.28866107	     17.18801341	     -4.29130634	     17.63125118	     -0.38701461	     -4.38551553	    -17.45387590	     18.47250910	     -3.79059204	      6.75411475	      3.79111554	      3.17314484
      0.13000000	    -11.40105834	     -2.15497898	     -1.82658849	     -0.81466398	      0.98091070	      0.17197331	     17.58048582	      2.65126433	     -2.56870151	    -18.29319357	     17.18887235	     -4.29043563	     17.62540610	     -0.38838304	     -4.38328717	    -17.46225641	     18.47366932	     -3.79043397	      6.76336582	      3.79077810	      3.17115029
      0.14000000	    -11.34690631	     -2.18292735	     -1.78308557	     -0.81458111	      0.98096435	      0.17193312	     17.51156463	      2.66184130	     -2.65151221	    -18.28663185	     17.21840420	     -4.27101014	     17.59124536	     -0.40759761	     -4.34815618	    -17.50998256	     18.51933253	     -3.78453734	      6.70743084	      3.81562499	      3.10266265
      0.15000000	    -11.32705339	     -2.18437146	     -1.77950909	     -0.81451835	      0.98096905	      0.17195974	     17.48862064	      2.66404750	     -2.63953187	    -18.29086265	     17.21661595	     -4.26770195	     17.58688006	     -0.40801325	     -4.32369229	    -17.55178021	     18.52496577	     -3.78382158	      6.69017882	      3.81418858	      3.09405279
      0.16000000	    -11.28161159	     -2.21671874	     -1.76203092	     -0.81439900	      0.98100489	      0.17199574	     17.42369774	      2.69502200	     -2.66577987	    -18.27724577	     17.23702849	     -4.26797366	     17.55433747	     -0.43990045	     -4.29570117	    -17.59551713	     18.57237452	     -3.78442267	      6.64878111	      3.84408362	      3.05621180
      0.17000000	    -11.26016122	     -2.22044474	     -1.76552547	     -0.81432106	      0.98100117	      0.17206066	     17.40201309	      2.70461135	     -2.64722445	    -18.28935927	     17.23909537	     -4.26968816	     17.54873058	     -0.44489272	     -4.26637337	    -17.64182628	     18.58017635	     -3.78493670	      6.63039495	      3.84330546	      3.05305370
      0.18000000	    -11.23112109	     -2.23459869	     -1.76655017	     -0.81424260	      0.98100297	      0.17213764	     17.36905351	      2.72657641	     -2.62851582	    -18.29698664	     17.25905184	     -4.27525416	     17.53950206	     -0.46175295	     -4.23729144	    -17.69719701	     18.60812573	     -3.78739798	      6.60083542	      3.85203246	      3.04099931
